<svg xmlns="http://www.w3.org/2000/svg" viewBox="0 0 300 300" aria-labelledby="logo-header" class="icon"><title id="logo-header">Logo</title><g transform="translate(0.000000,300.000000) scale(0.100000,-0.100000)" stroke="none"><path d="M1245 2984 c-368 -69 -674 -245 -904 -520 -141 -169 -246 -374 -303
-592 -29 -109 -32 -131 -36 -333 -3 -191 -1 -230 17 -328 102 -533 487 -968
1008 -1140 164 -55 274 -71 473 -71 199 0 309 16 473 71 521 172 906 607 1008
1140 18 98 20 137 17 328 -4 202 -7 224 -36 333 -144 549 -568 963 -1121 1095
-91 22 -134 26 -311 29 -152 2 -226 -1 -285 -12z m565 -77 c58 -14 128 -33
155 -42 87 -29 255 -113 343 -172 104 -69 263 -220 342 -325 367 -487 391
-1144 60 -1653 -205 -314 -520 -535 -892 -623 -103 -24 -130 -26 -318 -26
-188 0 -215 2 -318 26 -871 207 -1353 1127 -1019 1946 173 425 541 747 981
857 155 39 208 44 391 40 137 -3 190 -8 275 -28z"></path><path d="M1260 2843 c-671 -116 -1160 -726 -1127 -1404 13 -263 94 -504 240
-718 174 -254 394 -354 641 -291 107 27 169 63 252 145 78 77 133 175 153 273
7 32 11 174 11 352 l0 300 150 0 150 0 0 100 0 100 -150 0 -150 0 0 50 0 50
265 0 265 0 0 195 0 195 -460 0 -460 0 0 -602 c0 -378 -4 -620 -11 -648 -14
-61 -50 -105 -104 -125 -43 -17 -47 -17 -90 -1 -54 21 -102 74 -168 184 -106
175 -141 315 -134 532 4 119 9 161 31 233 83 279 270 496 531 618 133 62 235
83 405 83 117 0 162 -4 234 -22 336 -84 601 -340 702 -679 38 -126 45 -338 15
-470 -26 -118 -75 -231 -146 -339 -71 -106 -109 -136 -178 -141 -97 -7 -161
58 -154 159 6 95 65 142 171 136 l61 -3 28 58 c36 74 67 196 67 262 l0 52 -47
14 c-79 23 -225 17 -309 -13 -388 -137 -500 -617 -210 -903 83 -82 145 -118
252 -145 191 -49 377 3 519 145 308 309 435 811 320 1265 -131 517 -566 915
-1094 1004 -118 20 -355 20 -471 -1z"></path></g></svg>